<svg xmlns="http://www.w3.org/2000/svg" width="123.87" height="24.91" viewBox="0 0 123.87 24.91">
  <defs>
    <style>
      .cls-1 {
        fill: #d8d8d8;
        fill-rule: evenodd;
      }
    </style>
  </defs>
  <path id="AWARD" class="cls-1" d="M3310.41,3256.49l3.6-10.89h0.07l3.61,10.89h-7.28Zm10.29,8.92h3.98l-9.06-24.92h-3.16l-9.06,24.92h4l1.91-5.57h9.45Zm13.25,0h3.15l4.76-17.97h0.07l4.75,17.97h3.16l6.23-24.92h-3.99l-3.93,17.7h-0.07l-4.82-17.7h-2.73l-4.84,17.7h-0.06l-3.92-17.7h-3.98Zm32.17-8.92,3.61-10.89h0.07l3.6,10.89h-7.28Zm10.29,8.92h3.98l-9.05-24.92h-3.17l-9.05,24.92h4l1.91-5.57h9.45Zm13.05-21.55h5.92a4.262,4.262,0,0,1,2.76.77,3.292,3.292,0,0,1,1.25,2.81,3.864,3.864,0,0,1-1.04,2.74,4.114,4.114,0,0,1-3.18,1.23h-5.71v-7.55Zm-3.77,21.55h3.77v-10.65h4.82l5.15,10.65h4.49l-5.78-11.06a6.926,6.926,0,0,0,4.82-6.91,6.6,6.6,0,0,0-2.48-5.31,7.664,7.664,0,0,0-5.07-1.64h-9.72v24.92Zm23.97,0h8.45a8.661,8.661,0,0,0,4.74-1.23,8.765,8.765,0,0,0,3.04-2.91,12.712,12.712,0,0,0,.7-1.28,6.267,6.267,0,0,0,.41-1.44,35.319,35.319,0,0,0,.29-5.6,49.372,49.372,0,0,0-.19-5.32,7.626,7.626,0,0,0-1.14-2.94,8.374,8.374,0,0,0-7.59-4.2h-8.71v24.92Zm3.77-21.35h4.51a5.039,5.039,0,0,1,4.45,2.1,4.328,4.328,0,0,1,.97,2.28c0.1,0.93.16,2.48,0.16,4.64a43.635,43.635,0,0,1-.16,4.55,4.083,4.083,0,0,1-.8,2.03,5.131,5.131,0,0,1-4.62,2.17h-4.51v-17.77Z" transform="translate(-3303.41 -3240.5)"/>
</svg>
