<svg xmlns="http://www.w3.org/2000/svg" width="140.06" height="31.13" viewBox="0 0 140.06 31.13">
  <defs>
    <style>
      .cls-1 {
        fill: #fff;
        fill-rule: evenodd;
      }
    </style>
  </defs>
  <path id="ABOUT_のコピー" data-name="ABOUT のコピー" class="cls-1" d="M2011.02,2409.45l4.43-13.38h0.08l4.43,13.38h-8.94Zm12.64,10.96h4.89l-11.13-30.62h-3.88l-11.13,30.62h4.91l2.35-6.85h11.61Zm11.39,0h12.89a8.186,8.186,0,0,0,6.03-2.42,8.347,8.347,0,0,0,2.47-6.28,8.583,8.583,0,0,0-1.19-4.43,6.2,6.2,0,0,0-3.78-2.62v-0.08a9.848,9.848,0,0,0,2.22-1.41,5.707,5.707,0,0,0,1.39-1.56,7.018,7.018,0,0,0,.9-3.61,7.941,7.941,0,0,0-2.29-5.94q-2.265-2.22-6.78-2.27h-11.86v30.62Zm11.78-13.59a4.963,4.963,0,0,1,3.78,1.37,4.659,4.659,0,0,1,1.19,3.23,4.612,4.612,0,0,1-1.19,3.19,4.9,4.9,0,0,1-3.78,1.41h-7.14v-9.2h7.14Zm-0.44-12.89a5.2,5.2,0,0,1,3.73,1.24,4.339,4.339,0,0,1,1.22,3.13,4.114,4.114,0,0,1-1.22,3.06,4.787,4.787,0,0,1-3.73,1.33h-6.7v-8.76h6.7Zm17.37,18.27a9.755,9.755,0,0,0,.42,1.63c0.19,0.42.39,0.87,0.61,1.33a10.174,10.174,0,0,0,3.57,3.73,10.8,10.8,0,0,0,6.03,1.77,11,11,0,0,0,6.09-1.77,9.886,9.886,0,0,0,3.48-3.73,6.967,6.967,0,0,0,1.07-2.96,90.665,90.665,0,0,0,0-14.24,6.987,6.987,0,0,0-1.07-2.92,10.3,10.3,0,0,0-3.48-3.78,10.746,10.746,0,0,0-6.09-1.72,10.83,10.83,0,0,0-9.6,5.5,8.725,8.725,0,0,0-1.03,2.92,81.92,81.92,0,0,0,0,14.24h0Zm4.69-13.25a5.015,5.015,0,0,1,1.19-2.54,5.944,5.944,0,0,1,1.93-1.58,6.585,6.585,0,0,1,2.82-.65,6.855,6.855,0,0,1,2.87.65,5.528,5.528,0,0,1,1.85,1.58,5.325,5.325,0,0,1,1.24,2.54,38.71,38.71,0,0,1,.32,6.15,37.843,37.843,0,0,1-.32,6.11,5.379,5.379,0,0,1-1.24,2.58,5.215,5.215,0,0,1-1.85,1.54,5.725,5.725,0,0,1-2.87.69,5.508,5.508,0,0,1-2.82-.69,5.6,5.6,0,0,1-1.93-1.54,5.073,5.073,0,0,1-1.19-2.58,34.927,34.927,0,0,1-.34-6.11,35.722,35.722,0,0,1,.34-6.15h0Zm24.93,11.08a9.938,9.938,0,0,0,3.19,7.67,11.534,11.534,0,0,0,15.43,0,10.214,10.214,0,0,0,3.13-7.67v-20.24h-4.64v19.74a6.409,6.409,0,0,1-1.76,4.77,6.18,6.18,0,0,1-4.47,1.72,6.006,6.006,0,0,1-4.43-1.72,6.318,6.318,0,0,1-1.81-4.77v-19.74h-4.64v20.24Zm36.06,10.38h4.66v-26.48h8.38v-4.14h-21.41v4.14h8.37v26.48Z" transform="translate(-2002.41 -2389.53)"/>
</svg>
