<svg xmlns="http://www.w3.org/2000/svg" width="191" height="32" viewBox="0 0 191 32">
  <defs>
    <style>
      .cls-1 {
        fill: #fff;
        fill-rule: evenodd;
      }
    </style>
  </defs>
  <g id="アートボード_1" data-name="アートボード 1">
    <path id="h2_contact" class="cls-1" d="M1977.33,1045.84q-1.935,4.185-5.84,4.18a5.445,5.445,0,0,1-2.81-.69,5.55,5.55,0,0,1-1.94-1.54,5.073,5.073,0,0,1-1.19-2.58,34.927,34.927,0,0,1-.34-6.11,35.722,35.722,0,0,1,.34-6.15,5.015,5.015,0,0,1,1.19-2.54,5.88,5.88,0,0,1,1.94-1.58,6.5,6.5,0,0,1,2.81-.65,6.131,6.131,0,0,1,3.78,1.28,6.806,6.806,0,0,1,2.06,3.15h4.91a11.534,11.534,0,0,0-3.53-6.44,10.387,10.387,0,0,0-7.22-2.63,10.546,10.546,0,0,0-6.03,1.72,10.781,10.781,0,0,0-3.57,3.78,8.516,8.516,0,0,0-1.02,2.92,79.369,79.369,0,0,0,0,14.24,8.129,8.129,0,0,0,.42,1.63c0.18,0.42.38,0.87,0.6,1.33a10.34,10.34,0,0,0,3.57,3.73,10.8,10.8,0,0,0,6.03,1.77,10.953,10.953,0,0,0,6.91-2.27,11.466,11.466,0,0,0,3.84-6.55h-4.91Zm10.67,0.36a9.755,9.755,0,0,0,.42,1.63c0.19,0.42.39,0.87,0.61,1.33a10.34,10.34,0,0,0,3.57,3.73,10.8,10.8,0,0,0,6.03,1.77,11,11,0,0,0,6.09-1.77,9.886,9.886,0,0,0,3.48-3.73,6.967,6.967,0,0,0,1.07-2.96,90.665,90.665,0,0,0,0-14.24,6.987,6.987,0,0,0-1.07-2.92,10.3,10.3,0,0,0-3.48-3.78,10.746,10.746,0,0,0-6.09-1.72,10.546,10.546,0,0,0-6.03,1.72,10.781,10.781,0,0,0-3.57,3.78,8.725,8.725,0,0,0-1.03,2.92,81.92,81.92,0,0,0,0,14.24h0Zm4.69-13.25a5.015,5.015,0,0,1,1.19-2.54,5.88,5.88,0,0,1,1.94-1.58,6.5,6.5,0,0,1,2.81-.65,6.939,6.939,0,0,1,2.88.65,5.49,5.49,0,0,1,1.84,1.58,5.325,5.325,0,0,1,1.24,2.54,38.71,38.71,0,0,1,.32,6.15,37.843,37.843,0,0,1-.32,6.11,5.379,5.379,0,0,1-1.24,2.58,5.179,5.179,0,0,1-1.84,1.54,5.79,5.79,0,0,1-2.88.69,5.445,5.445,0,0,1-2.81-.69,5.55,5.55,0,0,1-1.94-1.54,5.073,5.073,0,0,1-1.19-2.58,34.927,34.927,0,0,1-.34-6.11,35.722,35.722,0,0,1,.34-6.15h0Zm25.5,21.46h4.64v-21.76h0.08l13.84,21.76h4.39v-30.62h-4.64v21.76h-0.09l-13.85-21.76h-4.37v30.62Zm37.83,0h4.66v-26.48h8.37v-4.14h-21.41v4.14h8.38v26.48Zm24.95-10.96,4.43-13.38h0.09l4.43,13.38h-8.95Zm12.64,10.96h4.89l-11.12-30.62h-3.89l-11.13,30.62h4.92l2.35-6.85h11.61Zm27.12-8.57c-1.29,2.79-3.23,4.18-5.84,4.18a5.445,5.445,0,0,1-2.81-.69,5.511,5.511,0,0,1-1.93-1.54,5.166,5.166,0,0,1-1.2-2.58,35.985,35.985,0,0,1-.34-6.11,36.812,36.812,0,0,1,.34-6.15,5.108,5.108,0,0,1,1.2-2.54,5.84,5.84,0,0,1,1.93-1.58,6.5,6.5,0,0,1,2.81-.65,6.088,6.088,0,0,1,3.78,1.28,6.73,6.73,0,0,1,2.06,3.15h4.91a11.52,11.52,0,0,0-3.52-6.44,11.315,11.315,0,0,0-13.25-.91,10.6,10.6,0,0,0-3.57,3.78,8.511,8.511,0,0,0-1.03,2.92,79.369,79.369,0,0,0,0,14.24,8.129,8.129,0,0,0,.42,1.63c0.18,0.42.38,0.87,0.61,1.33a10.174,10.174,0,0,0,3.57,3.73,10.763,10.763,0,0,0,6.02,1.77,10.953,10.953,0,0,0,6.91-2.27,11.466,11.466,0,0,0,3.84-6.55h-4.91Zm16.6,8.57h4.66v-26.48h8.38v-4.14h-21.42v4.14h8.38v26.48Z" transform="translate(-1960 -1023)"/>
  </g>
</svg>
