<svg xmlns="http://www.w3.org/2000/svg" width="191" height="32" viewBox="0 0 191 32">
  <defs>
    <style>
      .cls-1 {
        fill: #fff;
        fill-rule: evenodd;
      }
    </style>
  </defs>
  <g id="アートボード_1" data-name="アートボード 1">
    <path id="h2_news" class="cls-1" d="M1960.6,1054.41h4.64v-21.76h0.08l13.84,21.76h4.39v-30.62h-4.64v21.76h-0.09l-13.85-21.76h-4.37v30.62Zm32.64,0h19.55v-4.39h-14.91v-8.99h12.72v-4.11h-12.72v-8.74h14.91v-4.39h-19.55v30.62Zm32.03,0h3.87l5.85-22.07h0.09l5.83,22.07h3.89l7.64-30.62h-4.89l-4.83,21.76h-0.08l-5.92-21.76h-3.36l-5.95,21.76h-0.08l-4.81-21.76h-4.89Zm34.49-7.44-3.04,3.49a17.354,17.354,0,0,0,11.69,4.2q10.515-.135,10.75-8.9a8.654,8.654,0,0,0-2.04-5.71,9.5,9.5,0,0,0-6.36-3.09c-1.45-.18-2.6-0.34-3.44-0.48a5.92,5.92,0,0,1-3.3-1.52,3.39,3.39,0,0,1-1.03-2.39,3.988,3.988,0,0,1,1.54-3.32,5.8,5.8,0,0,1,3.57-1.07,14.112,14.112,0,0,1,7.58,2.35l2.58-3.82a17.268,17.268,0,0,0-9.93-3.17q-4.755.045-7.33,2.48a8.373,8.373,0,0,0-2.67,6.47,8.16,8.16,0,0,0,2.12,5.67,10.033,10.033,0,0,0,6.01,2.91q2.2,0.315,4.05.57,4.035,0.69,3.99,4.12c-0.06,2.78-2.07,4.2-6.05,4.26a13.415,13.415,0,0,1-8.69-3.05h0Z" transform="translate(-1960 -1023)"/>
  </g>
</svg>
