<svg xmlns="http://www.w3.org/2000/svg" width="191" height="32" viewBox="0 0 191 32">
  <defs>
    <style>
      .cls-1 {
        fill: #fff;
        fill-rule: evenodd;
      }
    </style>
  </defs>
  <g id="アートボード_1" data-name="アートボード 1">
    <path id="h2_work" class="cls-1" d="M1968.49,1054.41h3.87l5.85-22.07h0.09l5.83,22.07h3.89l7.64-30.62h-4.89l-4.83,21.76h-0.08l-5.92-21.76h-3.36l-5.95,21.76h-0.08l-4.81-21.76h-4.89Zm33.38-8.21a8.129,8.129,0,0,0,.42,1.63c0.18,0.42.38,0.87,0.61,1.33a10.174,10.174,0,0,0,3.57,3.73,10.763,10.763,0,0,0,6.02,1.77,10.953,10.953,0,0,0,6.09-1.77,10,10,0,0,0,3.49-3.73,7.244,7.244,0,0,0,1.07-2.96,94.013,94.013,0,0,0,0-14.24,7.272,7.272,0,0,0-1.07-2.92,10.42,10.42,0,0,0-3.49-3.78,10.7,10.7,0,0,0-6.09-1.72,10.83,10.83,0,0,0-9.59,5.5,8.308,8.308,0,0,0-1.03,2.92,79.369,79.369,0,0,0,0,14.24h0Zm4.68-13.25a5.025,5.025,0,0,1,1.2-2.54,5.84,5.84,0,0,1,1.93-1.58,6.5,6.5,0,0,1,2.81-.65,6.866,6.866,0,0,1,2.88.65,5.627,5.627,0,0,1,1.85,1.58,5.314,5.314,0,0,1,1.23,2.54,38.71,38.71,0,0,1,.32,6.15,37.843,37.843,0,0,1-.32,6.11,5.369,5.369,0,0,1-1.23,2.58,5.3,5.3,0,0,1-1.85,1.54,5.737,5.737,0,0,1-2.88.69,5.445,5.445,0,0,1-2.81-.69,5.511,5.511,0,0,1-1.93-1.54,5.083,5.083,0,0,1-1.2-2.58,35.985,35.985,0,0,1-.34-6.11,36.812,36.812,0,0,1,.34-6.15h0Zm30.14-5.02h7.27a5.336,5.336,0,0,1,3.4.95,4.062,4.062,0,0,1,1.53,3.46,4.741,4.741,0,0,1-1.28,3.36,5.075,5.075,0,0,1-3.91,1.51h-7.01v-9.28Zm-4.64,26.48h4.64v-13.08h5.92l6.32,13.08h5.52l-7.09-13.59a8.52,8.52,0,0,0,5.92-8.48,8.153,8.153,0,0,0-3.05-6.53,9.406,9.406,0,0,0-6.23-2.02h-11.95v30.62Zm29.45,0h4.64v-9.33l5.38-5.64,8.33,14.97h5.5l-10.83-18.54,9.8-12.08h-5.5l-12.6,15.77h-0.08v-15.77h-4.64v30.62Z" transform="translate(-1960 -1023)"/>
  </g>
</svg>
