<svg xmlns="http://www.w3.org/2000/svg" width="153" height="20" viewBox="0 0 153 20">
  <defs>
    <style>
      .cls-1 {
        fill: #d8d8d8;
        fill-rule: evenodd;
      }
    </style>
  </defs>
  <g id="アートボード_3" data-name="アートボード 3">
    <path id="h3_award" class="cls-1" d="M2242.76,1031.41l2.89-8.71h0.05l2.89,8.71h-5.83Zm8.23,7.13h3.19l-7.25-19.93h-2.53l-7.24,19.93h3.2l1.53-4.45h7.56Zm10.61,0h2.51l3.82-14.37h0.05l3.8,14.37h2.53l4.98-19.93h-3.19l-3.14,14.16h-0.05l-3.86-14.16h-2.19l-3.87,14.16h-0.05l-3.13-14.16h-3.19Zm25.74-7.13,2.88-8.71h0.06l2.88,8.71h-5.82Zm8.23,7.13h3.18l-7.24-19.93h-2.53l-7.25,19.93h3.2l1.53-4.45h7.56Zm10.44-17.24h4.73a3.463,3.463,0,0,1,2.21.62,2.64,2.64,0,0,1,1,2.25,3.094,3.094,0,0,1-.83,2.19,3.322,3.322,0,0,1-2.55.99h-4.56v-6.05Zm-3.02,17.24h3.02v-8.51h3.85l4.12,8.51h3.59l-4.62-8.84a5.557,5.557,0,0,0,3.86-5.53,5.343,5.343,0,0,0-1.98-4.25,6.167,6.167,0,0,0-4.06-1.31h-7.78v19.93Zm19.17,0h6.77a7.222,7.222,0,0,0,6.22-3.3,9.708,9.708,0,0,0,.56-1.03,4.7,4.7,0,0,0,.33-1.15,29.683,29.683,0,0,0,.23-4.48,40.519,40.519,0,0,0-.15-4.25,6.067,6.067,0,0,0-.91-2.36,6.721,6.721,0,0,0-6.08-3.36h-6.97v19.93Zm3.02-17.07h3.61a4,4,0,0,1,3.56,1.68,3.414,3.414,0,0,1,.78,1.82c0.08,0.75.12,1.98,0.12,3.72a35.484,35.484,0,0,1-.12,3.63,3.285,3.285,0,0,1-.65,1.63,4.084,4.084,0,0,1-3.69,1.74h-3.61v-14.22Z" transform="translate(-2210 -1019)"/>
  </g>
</svg>
