<svg xmlns="http://www.w3.org/2000/svg" width="153" height="20" viewBox="0 0 153 20">
  <defs>
    <style>
      .cls-1 {
        fill: #d8d8d8;
        fill-rule: evenodd;
      }
    </style>
  </defs>
  <g id="アートボード_3" data-name="アートボード 3">
    <path id="h3_exhibi" class="cls-1" d="M2210.64,1038.54h12.73v-2.85h-9.71v-5.86h8.28v-2.67h-8.28v-5.69h9.71v-2.86h-12.73v19.93Zm23.07-7.42,4.36,7.42h3.42l-6.1-10.21,5.7-9.72h-3.4l-3.98,6.92-3.98-6.92h-3.42l5.72,9.72-6.1,10.21h3.4Zm22.62,7.42h3.02v-19.93h-3.02v8.55h-7.89v-8.55h-3.02v19.93h3.02v-8.71h7.89v8.71Zm9.33,0h3.02v-19.93h-3.02v19.93Zm9.32,0h8.4a5.322,5.322,0,0,0,3.92-1.57,5.4,5.4,0,0,0,1.61-4.09,5.56,5.56,0,0,0-.78-2.88,3.958,3.958,0,0,0-2.46-1.71v-0.05a6.456,6.456,0,0,0,1.45-.92,4.023,4.023,0,0,0,.91-1.01,4.578,4.578,0,0,0,.58-2.35,5.138,5.138,0,0,0-1.49-3.87,6.12,6.12,0,0,0-4.41-1.48h-7.73v19.93Zm7.67-8.84a3.226,3.226,0,0,1,2.46.89,3.19,3.19,0,0,1,0,4.18,3.2,3.2,0,0,1-2.46.92H2278v-5.99h4.65Zm-0.29-8.4a3.417,3.417,0,0,1,2.44.81,2.855,2.855,0,0,1,.79,2.04,2.69,2.69,0,0,1-.79,1.99,3.111,3.111,0,0,1-2.44.86H2278v-5.7h4.36Zm11.8,17.24h3.02v-19.93h-3.02v19.93Zm12.69,0h3.04V1021.3h5.45v-2.69H2301.4v2.69h5.45v17.24Zm12.73,0h3.02v-19.93h-3.02v19.93Zm8.84-5.34a5.232,5.232,0,0,0,.27,1.06c0.12,0.28.25,0.57,0.4,0.87a6.591,6.591,0,0,0,2.32,2.43,7.046,7.046,0,0,0,3.93,1.15,7.148,7.148,0,0,0,3.96-1.15,6.511,6.511,0,0,0,2.27-2.43,4.663,4.663,0,0,0,.7-1.93,63.27,63.27,0,0,0,0-9.27,4.521,4.521,0,0,0-.7-1.9,6.733,6.733,0,0,0-2.27-2.46,6.9,6.9,0,0,0-3.96-1.12,7.039,7.039,0,0,0-6.25,3.58,5.333,5.333,0,0,0-.67,1.9,51.255,51.255,0,0,0,0,9.27h0Zm3.05-8.63a3.183,3.183,0,0,1,.78-1.65,3.661,3.661,0,0,1,1.25-1.03,4.267,4.267,0,0,1,1.84-.42,4.48,4.48,0,0,1,1.87.42,4.25,4.25,0,0,1,2.01,2.68,26.506,26.506,0,0,1,.2,4.01,25.935,25.935,0,0,1-.2,3.98,3.576,3.576,0,0,1-.81,1.68,3.386,3.386,0,0,1-1.2,1,3.725,3.725,0,0,1-1.87.45,3.559,3.559,0,0,1-1.84-.45,3.483,3.483,0,0,1-1.25-1,3.208,3.208,0,0,1-.78-1.68,22.86,22.86,0,0,1-.22-3.98,23.358,23.358,0,0,1,.22-4.01h0Zm16.6,13.97h3.02v-14.16h0.06l9.01,14.16h2.86v-19.93h-3.03v14.16h-0.05l-9.02-14.16h-2.85v19.93Z" transform="translate(-2210 -1019)"/>
  </g>
</svg>
