<?xml version="1.0" encoding="utf-8"?>
<!-- Generator: Adobe Illustrator 24.0.1, SVG Export Plug-In . SVG Version: 6.00 Build 0)  -->
<svg version="1.1" id="レイヤー_1" xmlns="http://www.w3.org/2000/svg" xmlns:xlink="http://www.w3.org/1999/xlink" x="0px"
	 y="0px" width="200px" height="128px" viewBox="0 0 200 128" style="enable-background:new 0 0 200 128;" xml:space="preserve">
<style type="text/css">
	.st0{fill:#FFFFFF;stroke:#FFFFFF;stroke-miterlimit:10;}
	.st1{fill:#FFFFFF;stroke:#FFFFFF;stroke-width:4;stroke-linecap:round;stroke-miterlimit:10;}
</style>
<path class="st0" d="M182.402,71.152c0,0,4.099,0.833,3.917,3.201c-0.32,4.154-2.654,5.655-2.654,5.655L182.402,71.152z"/>
<path class="st1" d="M26.155,77.911"/>
<g>
	<path class="st0" d="M39.215,125.931c-19.258,0-34.925-15.668-34.925-34.926S19.958,56.08,39.215,56.08
		s34.925,15.667,34.925,34.925S58.473,125.931,39.215,125.931z M39.215,62.08c-15.949,0-28.925,12.976-28.925,28.925
		c0,15.95,12.976,28.926,28.925,28.926s28.925-12.976,28.925-28.926C68.141,75.056,55.165,62.08,39.215,62.08z"/>
	<path class="st0" d="M153.953,126.266c-19.258,0-34.926-15.668-34.926-34.926s15.668-34.925,34.926-34.925
		s34.925,15.667,34.925,34.925S173.211,126.266,153.953,126.266z M153.953,62.415c-15.95,0-28.926,12.976-28.926,28.925
		c0,15.95,12.976,28.926,28.926,28.926c15.949,0,28.925-12.976,28.925-28.926C182.878,75.391,169.902,62.415,153.953,62.415z"/>
	<path class="st0" d="M39.353,93.34c-0.612,0-1.217-0.28-1.609-0.811c-0.657-0.888-0.47-2.141,0.418-2.797l16.692-12.351
		l9.057-42.384c0.23-1.081,1.294-1.765,2.374-1.538c1.08,0.231,1.769,1.294,1.538,2.374L58.45,79.698L40.541,92.947
		C40.183,93.212,39.766,93.34,39.353,93.34z"/>
	<path class="st0" d="M97.782,100.821c-4.163,0-7.549-3.387-7.549-7.55c0-4.162,3.387-7.549,7.549-7.549s7.549,3.387,7.549,7.549
		C105.331,97.435,101.944,100.821,97.782,100.821z M97.782,89.723c-1.957,0-3.549,1.592-3.549,3.549s1.592,3.55,3.549,3.55
		s3.549-1.593,3.549-3.55S99.739,89.723,97.782,89.723z"/>
	<path class="st0" d="M100.206,89.321c-0.366,0-0.735-0.1-1.067-0.31c-0.663-0.42-16.303-10.349-22.298-17.104
		c-5.89-6.639-15.31-20.338-15.708-20.918c-0.625-0.911-0.394-2.156,0.517-2.781c0.911-0.625,2.156-0.394,2.781,0.517
		c0.096,0.14,9.677,14.075,15.402,20.528c5.62,6.333,21.287,16.278,21.444,16.378c0.934,0.591,1.212,1.826,0.621,2.76
		C101.517,88.992,100.869,89.321,100.206,89.321z"/>
	<path class="st0" d="M104.851,81.182c-0.365,0-0.735-0.1-1.067-0.31c-0.663-0.42-16.302-10.349-22.297-17.104
		c-5.889-6.638-17.431-23.384-17.919-24.094c-0.626-0.91-0.396-2.155,0.514-2.781c0.91-0.626,2.155-0.395,2.781,0.514
		c0.118,0.172,11.89,17.253,17.616,23.707c5.62,6.333,21.287,16.278,21.444,16.377c0.934,0.591,1.211,1.826,0.621,2.76
		C106.162,80.853,105.514,81.182,104.851,81.182z"/>
	<path class="st0" d="M101.044,89.015c-0.32,0-0.645-0.076-0.946-0.239c-0.973-0.523-1.336-1.736-0.812-2.709l18.28-33.948
		c0.524-0.973,1.736-1.336,2.709-0.812c0.973,0.523,1.336,1.736,0.812,2.709l-18.28,33.948
		C102.445,88.634,101.756,89.015,101.044,89.015z"/>
	<path class="st0" d="M153.953,95.271h-50.622c-1.104,0-2-0.896-2-2s0.896-2,2-2h50.622c1.104,0,2,0.896,2,2
		S155.058,95.271,153.953,95.271z"/>
	<path class="st0" d="M151.964,94.193c-0.572,0-1.142-0.245-1.537-0.719L117.79,54.348c-0.707-0.849-0.593-2.109,0.255-2.817
		c0.847-0.707,2.109-0.595,2.817,0.254l32.637,39.127c0.707,0.849,0.593,2.109-0.255,2.817
		C152.87,94.041,152.416,94.193,151.964,94.193z"/>
	<path class="st0" d="M135.356,37.86c0-10.279-9.143-4.708-9.143-4.708s-12.323,6.739-19.662,7.537
		c-7.339,0.798-7.339,6.999-2.548,6.999c4.792,0,22.21-1.013,22.21-1.013S135.356,48.14,135.356,37.86z"/>
	<path class="st0" d="M68.566,31.5c-0.281,0-0.565-0.079-0.817-0.243c-0.966-0.63-5.813-3.926-6.376-6.999
		c-0.402-2.198,4.167-8.691,13.579-19.3l0.448-0.504h4.522c0.829,0,1.5,0.671,1.5,1.5s-0.671,1.5-1.5,1.5H76.75
		c-5.823,6.608-12.052,14.528-12.404,16.36c0.358,1.35,3.188,3.72,5.042,4.93c0.693,0.453,0.889,1.382,0.436,2.076
		C69.536,31.26,69.056,31.5,68.566,31.5z"/>
	<path class="st0" d="M92.209,16.396l-9.957-5.749c-1.066-0.615-1.431-1.978-0.816-3.044l1.013-1.754
		c0.615-1.066,1.978-1.431,3.044-0.816l9.957,5.749c1.066,0.615,1.431,1.978,0.816,3.044l-1.013,1.754
		C94.638,16.647,93.275,17.012,92.209,16.396z"/>
	<path class="st1" d="M128.642,60.463"/>
	<path class="st0" d="M192.634,98.167c-0.029,0-0.059-0.002-0.089-0.004c-0.55-0.049-0.956-0.533-0.908-1.084
		c0.021-0.243,1.913-24.531-16.578-36.832c-23.438-15.59-46.98,2.87-47.216,3.059c-0.432,0.345-1.059,0.275-1.406-0.155
		c-0.345-0.431-0.276-1.06,0.154-1.405c0.246-0.197,24.901-19.577,49.575-3.164c19.495,12.967,17.485,38.417,17.463,38.672
		C193.583,97.775,193.146,98.167,192.634,98.167z"/>
	
		<rect x="87.889" y="97.935" transform="matrix(0.7071 0.7071 -0.7071 0.7071 99.2697 -32.5766)" class="st0" width="2.138" height="11.212"/>
	<path class="st0" d="M84.936,114.731l-7.168-7.168c-0.614-0.614-0.614-1.609,0-2.223l1.01-1.01c0.614-0.614,1.609-0.614,2.223,0
		l7.168,7.168c0.614,0.614,0.614,1.609,0,2.223l-1.01,1.01C86.545,115.345,85.549,115.345,84.936,114.731z"/>
	<rect x="81.938" y="58.463" class="st0" width="31.1" height="4"/>
	<path class="st0" d="M51.233,56.237c-0.169,0-0.336-0.029-0.493-0.083c-0.393,0.134-0.839,0.108-1.227-0.11
		c-0.046-0.026-4.665-2.598-10.235-3.33c-2.919-0.385-5.927,0.876-8.343,1.889c-2.473,1.037-4.425,1.855-5.751,0.452
		c-0.481-0.509-1.375-1.456-1.419-17.049c-0.002-0.614-0.034-15.053,0.729-16.945c0.389-0.964,0.789-1.966,11.35-1.801
		c4.746,0.072,10.218,0.382,14.638,0.829c8.462,0.857,8.788,1.741,9.103,2.595c0.797,2.161-2.009,16.699-2.038,16.846
		c-3.008,15.511-4.868,16.248-5.761,16.603C51.604,56.203,51.417,56.237,51.233,56.237z M38.182,49.643
		c0.492,0,0.988,0.03,1.488,0.096c5.348,0.704,9.775,2.875,10.993,3.516c2.187-2.974,6.125-24.863,6.101-29.173
		c-3.925-1.33-25.719-2.418-29.571-1.472c-0.592,3.958-0.663,25.91,0.205,30.126c0.596-0.153,1.6-0.574,2.379-0.9
		C32.03,50.89,35.007,49.643,38.182,49.643z M27.536,53.236L27.536,53.236L27.536,53.236z"/>
	<path class="st1" d="M22.451,56.612"/>
	<path class="st0" d="M84.235,102.105c-0.157,0-0.316-0.037-0.465-0.116c-0.198-0.105-4.84-2.646-4.84-9.589
		s5.406-9.882,5.636-10.003c0.488-0.258,1.094-0.071,1.351,0.416c0.258,0.487,0.072,1.092-0.414,1.351
		c-0.2,0.108-4.573,2.536-4.573,8.236c0,5.694,3.627,7.74,3.782,7.824c0.483,0.264,0.665,0.869,0.404,1.354
		C84.936,101.914,84.591,102.105,84.235,102.105z"/>
	<path class="st0" d="M118.493,104.541H96.196c-0.552,0-1-0.447-1-1s0.448-1,1-1h22.297c0.553,0,1,0.447,1,1
		S119.046,104.541,118.493,104.541z"/>
	<path class="st0" d="M118.493,84.281h-10.315c-0.553,0-1-0.447-1-1s0.447-1,1-1h10.315c0.553,0,1,0.447,1,1
		S119.046,84.281,118.493,84.281z"/>
	<path class="st0" d="M39.215,121.774c-0.552,0-1-0.447-1-1V61.906c0-0.552,0.448-1,1-1s1,0.448,1,1v58.868
		C40.215,121.327,39.768,121.774,39.215,121.774z"/>
	<path class="st0" d="M153.953,122.824c-0.553,0-1-0.447-1-1V62.956c0-0.552,0.447-1,1-1s1,0.448,1,1v58.868
		C154.953,122.377,154.506,122.824,153.953,122.824z"/>
	<path class="st0" d="M168.711,118.87c-0.346,0-0.682-0.179-0.867-0.5L138.41,67.389c-0.276-0.479-0.112-1.09,0.366-1.366
		c0.477-0.276,1.089-0.113,1.366,0.366l29.434,50.981c0.276,0.479,0.112,1.09-0.366,1.366
		C169.053,118.827,168.881,118.87,168.711,118.87z"/>
	<path class="st0" d="M179.512,108.066c-0.17,0-0.342-0.043-0.499-0.134l-50.98-29.434c-0.479-0.276-0.643-0.888-0.366-1.366
		s0.888-0.644,1.366-0.366l50.98,29.434c0.479,0.276,0.643,0.888,0.366,1.366C180.193,107.887,179.857,108.066,179.512,108.066z"/>
	<path class="st0" d="M183.467,93.31H124.6c-0.553,0-1-0.447-1-1s0.447-1,1-1h58.867c0.553,0,1,0.447,1,1
		S184.02,93.31,183.467,93.31z"/>
	<path class="st0" d="M128.533,107.986c-0.346,0-0.682-0.179-0.867-0.5c-0.276-0.479-0.112-1.09,0.366-1.366l50.98-29.435
		c0.476-0.275,1.089-0.114,1.366,0.366c0.276,0.479,0.112,1.09-0.366,1.366l-50.98,29.435
		C128.875,107.943,128.703,107.986,128.533,107.986z"/>
	<path class="st0" d="M139.275,118.73c-0.17,0-0.342-0.043-0.499-0.134c-0.479-0.276-0.643-0.888-0.366-1.366l29.434-50.981
		c0.276-0.478,0.889-0.643,1.366-0.366c0.479,0.276,0.643,0.888,0.366,1.366l-29.434,50.981
		C139.957,118.551,139.621,118.73,139.275,118.73z"/>
	<path class="st0" d="M53.952,117.898c-0.346,0-0.682-0.179-0.867-0.5L23.65,66.417c-0.276-0.479-0.112-1.09,0.366-1.366
		c0.477-0.277,1.089-0.113,1.366,0.366l29.434,50.981c0.276,0.479,0.112,1.09-0.366,1.366
		C54.293,117.855,54.121,117.898,53.952,117.898z"/>
	<path class="st0" d="M64.773,107.175c-0.169,0-0.341-0.043-0.499-0.134L13.292,77.606c-0.479-0.276-0.642-0.888-0.366-1.366
		c0.276-0.478,0.886-0.643,1.366-0.366l50.981,29.435c0.479,0.276,0.642,0.888,0.366,1.366
		C65.455,106.996,65.119,107.175,64.773,107.175z"/>
	<path class="st0" d="M68.785,92.476H9.917c-0.552,0-1-0.447-1-1s0.448-1,1-1h58.868c0.552,0,1,0.447,1,1
		S69.337,92.476,68.785,92.476z"/>
	<path class="st0" d="M13.929,107.175c-0.346,0-0.682-0.179-0.867-0.5c-0.276-0.479-0.112-1.09,0.366-1.366L64.41,75.874
		c0.477-0.276,1.089-0.113,1.366,0.366c0.276,0.479,0.112,1.09-0.366,1.366l-50.981,29.435
		C14.271,107.132,14.099,107.175,13.929,107.175z"/>
	<path class="st0" d="M24.75,117.898c-0.169,0-0.341-0.043-0.499-0.134c-0.479-0.276-0.642-0.888-0.366-1.366l29.434-50.981
		c0.276-0.478,0.886-0.644,1.366-0.366c0.479,0.276,0.642,0.888,0.366,1.366l-29.434,50.981
		C25.432,117.719,25.096,117.898,24.75,117.898z"/>
</g>
</svg>
