<svg xmlns="http://www.w3.org/2000/svg" width="177" height="30" viewBox="0 0 177 30">
  <defs>
    <style>
      .cls-1 {
        fill: #fff;
        fill-rule: evenodd;
      }
    </style>
  </defs>
  <g id="アートボード_2" data-name="アートボード 2">
    <path id="sp_h2_about" class="cls-1" d="M4196.41,1044.69l4.12-12.44h0.08l4.12,12.44h-8.32Zm11.76,10.19h4.55l-10.35-28.47h-3.61l-10.35,28.47h4.57l2.18-6.37h10.8Zm10.6,0h11.99a7.644,7.644,0,0,0,5.61-2.24,7.775,7.775,0,0,0,2.3-5.84,7.982,7.982,0,0,0-1.11-4.12,5.769,5.769,0,0,0-3.52-2.45v-0.07a9.691,9.691,0,0,0,2.07-1.31,5.547,5.547,0,0,0,1.29-1.45,6.506,6.506,0,0,0,.84-3.36,7.414,7.414,0,0,0-2.13-5.53c-1.4-1.38-3.51-2.08-6.31-2.1h-11.03v28.47Zm10.96-12.63a4.59,4.59,0,0,1,3.51,1.26,4.4,4.4,0,0,1,1.12,3.01,4.321,4.321,0,0,1-1.12,2.97,4.534,4.534,0,0,1-3.51,1.31h-6.64v-8.55h6.64Zm-0.41-12a4.837,4.837,0,0,1,3.47,1.16,4.038,4.038,0,0,1,1.14,2.91,3.867,3.867,0,0,1-1.14,2.85,4.457,4.457,0,0,1-3.47,1.23h-6.23v-8.15h6.23Zm16.16,17a7.4,7.4,0,0,0,.39,1.52q0.255,0.585.57,1.23a9.586,9.586,0,0,0,3.32,3.48,10.044,10.044,0,0,0,5.6,1.64,10.259,10.259,0,0,0,5.67-1.64,9.407,9.407,0,0,0,3.24-3.48,6.73,6.73,0,0,0,1-2.75,87.906,87.906,0,0,0,0-13.25,6.647,6.647,0,0,0-1-2.71,9.577,9.577,0,0,0-3.24-3.52,10.007,10.007,0,0,0-5.67-1.6,10.064,10.064,0,0,0-8.92,5.12,7.859,7.859,0,0,0-.96,2.71,75.818,75.818,0,0,0,0,13.25h0Zm4.36-12.33a4.684,4.684,0,0,1,1.11-2.36,5.282,5.282,0,0,1,1.8-1.47,5.945,5.945,0,0,1,2.61-.6,6.336,6.336,0,0,1,2.68.6,5.169,5.169,0,0,1,1.72,1.47,4.987,4.987,0,0,1,1.15,2.36,35.76,35.76,0,0,1,.29,5.72,35.057,35.057,0,0,1-.29,5.69,5,5,0,0,1-1.15,2.4,4.852,4.852,0,0,1-1.72,1.43,5.342,5.342,0,0,1-2.68.64,5.025,5.025,0,0,1-2.61-.64,4.971,4.971,0,0,1-1.8-1.43,4.7,4.7,0,0,1-1.11-2.4,32.9,32.9,0,0,1-.32-5.69,33.568,33.568,0,0,1,.32-5.72h0Zm23.19,10.31a9.251,9.251,0,0,0,2.97,7.13,10.719,10.719,0,0,0,14.36,0,9.566,9.566,0,0,0,2.91-7.13v-18.82h-4.32v18.35a5.963,5.963,0,0,1-1.64,4.44,5.709,5.709,0,0,1-4.16,1.6,5.553,5.553,0,0,1-4.12-1.6,5.83,5.83,0,0,1-1.68-4.44v-18.35h-4.32v18.82Zm33.55,9.65h4.33v-24.63h7.8v-3.84h-19.93v3.84h7.8v24.63Z" transform="translate(-4188 -1026)"/>
  </g>
</svg>
