<svg xmlns="http://www.w3.org/2000/svg" width="190.47" height="25.34" viewBox="0 0 190.47 25.34">
  <defs>
    <style>
      .cls-1 {
        fill: #d8d8d8;
        fill-rule: evenodd;
      }
    </style>
  </defs>
  <path id="EXHIBITION" class="cls-1" d="M4426,1052.41h15.91v-3.58h-12.13v-7.31h10.35v-3.35h-10.35v-7.11h12.13v-3.57H4426v24.92Zm28.84-9.28,5.45,9.28h4.27l-7.62-12.77,7.13-12.15h-4.26l-4.97,8.65-4.97-8.65h-4.28l7.15,12.15-7.62,12.77h4.25Zm28.28,9.28h3.77v-24.92h-3.77v10.68h-9.86v-10.68h-3.78v24.92h3.78v-10.89h9.86v10.89Zm11.66,0h3.78v-24.92h-3.78v24.92Zm11.65,0h10.49a6.671,6.671,0,0,0,4.91-1.97,6.8,6.8,0,0,0,2.01-5.11,6.945,6.945,0,0,0-.97-3.6,4.957,4.957,0,0,0-3.08-2.14v-0.07a8.109,8.109,0,0,0,1.82-1.14,4.676,4.676,0,0,0,1.12-1.27,5.692,5.692,0,0,0,.74-2.94,6.457,6.457,0,0,0-1.86-4.83,7.667,7.667,0,0,0-5.52-1.85h-9.66v24.92Zm9.59-11.06a4.02,4.02,0,0,1,3.07,1.11,3.829,3.829,0,0,1,.98,2.63,3.79,3.79,0,0,1-.98,2.6,3.957,3.957,0,0,1-3.07,1.14h-5.81v-7.48h5.81Zm-0.36-10.49a4.278,4.278,0,0,1,3.04,1,3.581,3.581,0,0,1,.99,2.55,3.4,3.4,0,0,1-.99,2.5,3.928,3.928,0,0,1-3.04,1.07h-5.45v-7.12h5.45Zm14.74,21.55h3.78v-24.92h-3.78v24.92Zm15.87,0h3.79v-21.55h6.82v-3.37h-17.43v3.37h6.82v21.55Zm15.9,0h3.78v-24.92h-3.78v24.92Zm11.05-6.69a7.55,7.55,0,0,0,.35,1.34c0.14,0.34.31,0.7,0.49,1.07a8.4,8.4,0,0,0,2.91,3.05,8.7,8.7,0,0,0,4.9,1.43,8.882,8.882,0,0,0,4.96-1.43,8.14,8.14,0,0,0,2.83-3.05,5.6,5.6,0,0,0,.88-2.41,76.3,76.3,0,0,0,0-11.58,5.666,5.666,0,0,0-.88-2.38,8.337,8.337,0,0,0-2.83-3.07,8.719,8.719,0,0,0-4.96-1.41,8.875,8.875,0,0,0-7.81,4.48,7.252,7.252,0,0,0-.84,2.38,67.172,67.172,0,0,0,0,11.58h0Zm3.82-10.78a4.078,4.078,0,0,1,.97-2.07,4.77,4.77,0,0,1,1.57-1.28,5.191,5.191,0,0,1,2.29-.53,5.452,5.452,0,0,1,2.34.53,4.534,4.534,0,0,1,1.51,1.28,4.475,4.475,0,0,1,1.01,2.07,32.117,32.117,0,0,1,.25,5.01,31.241,31.241,0,0,1-.25,4.97,4.4,4.4,0,0,1-1.01,2.1,4.142,4.142,0,0,1-1.51,1.25,4.607,4.607,0,0,1-2.34.56,5.085,5.085,0,0,1-3.86-1.81,4.026,4.026,0,0,1-.97-2.1,27.979,27.979,0,0,1-.28-4.97,28.762,28.762,0,0,1,.28-5.01h0Zm20.75,17.47h3.78V1034.7h0.07l11.26,17.71h3.57v-24.92h-3.78v17.7h-0.06l-11.28-17.7h-3.56v24.92Z" transform="translate(-4426 -1027.28)"/>
</svg>
