<svg xmlns="http://www.w3.org/2000/svg" width="177" height="30" viewBox="0 0 177 30">
  <defs>
    <style>
      .cls-1 {
        fill: #fff;
        fill-rule: evenodd;
      }
    </style>
  </defs>
  <g id="アートボード_2" data-name="アートボード 2">
    <path id="sp_h2_news" class="cls-1" d="M4188.37,1054.88h4.32v-20.23h0.08l12.87,20.23h4.08v-28.47h-4.31v20.23h-0.08l-12.89-20.23h-4.07v28.47Zm30.37,0h18.18v-4.08h-13.87v-8.36h11.84v-3.83h-11.84v-8.12h13.87v-4.08h-18.18v28.47Zm29.79,0h3.6l5.45-20.53h0.08l5.43,20.53h3.61l7.11-28.47h-4.55l-4.49,20.23h-0.08l-5.51-20.23h-3.13l-5.52,20.23h-0.08l-4.47-20.23h-4.55Zm32.09-6.91-2.84,3.24a16.186,16.186,0,0,0,10.88,3.91q9.8-.12,10-8.28a8.116,8.116,0,0,0-1.89-5.32,8.9,8.9,0,0,0-5.92-2.87c-1.35-.17-2.42-0.32-3.2-0.45a5.537,5.537,0,0,1-3.07-1.4,3.154,3.154,0,0,1-.96-2.23,3.731,3.731,0,0,1,1.43-3.09,5.406,5.406,0,0,1,3.32-.99,12.978,12.978,0,0,1,7.05,2.19l2.4-3.56a15.959,15.959,0,0,0-9.23-2.95,9.7,9.7,0,0,0-6.82,2.31,7.783,7.783,0,0,0-2.48,6.01,7.558,7.558,0,0,0,1.97,5.27,9.291,9.291,0,0,0,5.59,2.72c1.36,0.2,2.62.37,3.77,0.53,2.5,0.43,3.73,1.7,3.71,3.83q-0.075,3.885-5.63,3.96a12.52,12.52,0,0,1-8.08-2.83h0Z" transform="translate(-4188 -1026)"/>
  </g>
</svg>
