<svg xmlns="http://www.w3.org/2000/svg" width="177" height="30" viewBox="0 0 177 30">
  <defs>
    <style>
      .cls-1 {
        fill: #fff;
        fill-rule: evenodd;
      }
    </style>
  </defs>
  <g id="アートボード_2" data-name="アートボード 2">
    <path id="sp_h2_contact" class="cls-1" d="M4204,1046.91q-1.785,3.885-5.43,3.89a5.832,5.832,0,0,1-4.41-2.07,4.7,4.7,0,0,1-1.11-2.4,32.9,32.9,0,0,1-.32-5.69,33.568,33.568,0,0,1,.32-5.72,4.684,4.684,0,0,1,1.11-2.36,5.379,5.379,0,0,1,1.8-1.47,5.979,5.979,0,0,1,2.61-.6,5.6,5.6,0,0,1,3.52,1.19,6.273,6.273,0,0,1,1.91,2.93h4.57a10.755,10.755,0,0,0-3.28-6,9.666,9.666,0,0,0-6.72-2.44,10.064,10.064,0,0,0-8.92,5.12,7.859,7.859,0,0,0-.96,2.71,75.818,75.818,0,0,0,0,13.25,8.967,8.967,0,0,0,.39,1.52q0.255,0.585.57,1.23a9.586,9.586,0,0,0,3.32,3.48,10.068,10.068,0,0,0,5.6,1.64,10.2,10.2,0,0,0,6.43-2.11,10.649,10.649,0,0,0,3.57-6.1H4204Zm9.94,0.34a7.4,7.4,0,0,0,.39,1.52c0.17,0.39.36,0.8,0.56,1.23a9.671,9.671,0,0,0,3.32,3.48,10.1,10.1,0,0,0,5.61,1.64,10.224,10.224,0,0,0,5.66-1.64,9.44,9.44,0,0,0,3.25-3.48,6.589,6.589,0,0,0,.99-2.75,84.535,84.535,0,0,0,0-13.25,6.5,6.5,0,0,0-.99-2.71,9.61,9.61,0,0,0-3.25-3.52,9.973,9.973,0,0,0-5.66-1.6,10.064,10.064,0,0,0-8.93,5.12,7.864,7.864,0,0,0-.95,2.71,73.3,73.3,0,0,0,0,13.25h0Zm4.35-12.33a4.694,4.694,0,0,1,1.12-2.36,5.34,5.34,0,0,1,1.79-1.47,5.99,5.99,0,0,1,2.62-.6,6.336,6.336,0,0,1,2.68.6,5.131,5.131,0,0,1,1.71,1.47,5,5,0,0,1,1.16,2.36,37.031,37.031,0,0,1,.29,5.72,36.294,36.294,0,0,1-.29,5.69,5.006,5.006,0,0,1-1.16,2.4,4.817,4.817,0,0,1-1.71,1.43,5.342,5.342,0,0,1-2.68.64,5.787,5.787,0,0,1-4.41-2.07,4.712,4.712,0,0,1-1.12-2.4,33.228,33.228,0,0,1-.31-5.69,33.9,33.9,0,0,1,.31-5.72h0Zm23.73,19.96h4.31v-20.23h0.08l12.87,20.23h4.08v-28.47h-4.31v20.23h-0.08l-12.89-20.23h-4.06v28.47Zm35.18,0h4.34v-24.63h7.79v-3.84h-19.92v3.84h7.79v24.63Zm23.22-10.19,4.12-12.44h0.08l4.12,12.44h-8.32Zm11.76,10.19h4.55l-10.36-28.47h-3.61l-10.35,28.47h4.57l2.19-6.37h10.8Zm25.22-7.97q-1.8,3.885-5.43,3.89a5.025,5.025,0,0,1-2.61-.64,4.971,4.971,0,0,1-1.8-1.43,4.794,4.794,0,0,1-1.12-2.4,34.335,34.335,0,0,1-.31-5.69,35.034,35.034,0,0,1,.31-5.72,4.778,4.778,0,0,1,1.12-2.36,5.282,5.282,0,0,1,1.8-1.47,5.945,5.945,0,0,1,2.61-.6,5.62,5.62,0,0,1,3.52,1.19,6.273,6.273,0,0,1,1.91,2.93h4.57a10.755,10.755,0,0,0-3.28-6,9.666,9.666,0,0,0-6.72-2.44,10.064,10.064,0,0,0-8.92,5.12,7.859,7.859,0,0,0-.96,2.71,75.818,75.818,0,0,0,0,13.25,7.4,7.4,0,0,0,.39,1.52q0.255,0.585.57,1.23a9.586,9.586,0,0,0,3.32,3.48,10.044,10.044,0,0,0,5.6,1.64,10.2,10.2,0,0,0,6.43-2.11,10.649,10.649,0,0,0,3.57-6.1h-4.57Zm15.44,7.97h4.34v-24.63h7.79v-3.84h-19.92v3.84h7.79v24.63Z" transform="translate(-4188 -1026)"/>
  </g>
</svg>
