<svg xmlns="http://www.w3.org/2000/svg" width="177" height="30" viewBox="0 0 177 30">
  <defs>
    <style>
      .cls-1 {
        fill: #fff;
        fill-rule: evenodd;
      }
    </style>
  </defs>
  <g id="アートボード_2" data-name="アートボード 2">
    <path id="sp_h2_work" class="cls-1" d="M4195.93,1054.88h3.59l5.45-20.53h0.08l5.43,20.53h3.61l7.11-28.47h-4.55l-4.49,20.23h-0.08l-5.51-20.23h-3.13l-5.52,20.23h-0.08l-4.47-20.23h-4.55Zm31.04-7.63a8.967,8.967,0,0,0,.39,1.52q0.255,0.585.57,1.23a9.671,9.671,0,0,0,3.32,3.48,10.1,10.1,0,0,0,5.61,1.64,10.25,10.25,0,0,0,5.66-1.64,9.325,9.325,0,0,0,3.24-3.48,6.73,6.73,0,0,0,1-2.75,87.906,87.906,0,0,0,0-13.25,6.647,6.647,0,0,0-1-2.71,9.492,9.492,0,0,0-3.24-3.52,10,10,0,0,0-5.66-1.6,10.064,10.064,0,0,0-8.93,5.12,7.859,7.859,0,0,0-.96,2.71,75.818,75.818,0,0,0,0,13.25h0Zm4.36-12.33a4.684,4.684,0,0,1,1.11-2.36,5.48,5.48,0,0,1,1.8-1.47,5.99,5.99,0,0,1,2.62-.6,6.289,6.289,0,0,1,2.67.6,5.072,5.072,0,0,1,1.72,1.47,4.987,4.987,0,0,1,1.15,2.36,35.76,35.76,0,0,1,.29,5.72,35.057,35.057,0,0,1-.29,5.69,5,5,0,0,1-1.15,2.4,4.767,4.767,0,0,1-1.72,1.43,5.3,5.3,0,0,1-2.67.64,5.063,5.063,0,0,1-2.62-.64,5.147,5.147,0,0,1-1.8-1.43,4.7,4.7,0,0,1-1.11-2.4,33.228,33.228,0,0,1-.31-5.69,33.9,33.9,0,0,1,.31-5.72h0Zm28.04-4.67h6.75a5.007,5.007,0,0,1,3.17.88,3.784,3.784,0,0,1,1.42,3.22,4.382,4.382,0,0,1-1.19,3.13,4.719,4.719,0,0,1-3.63,1.41h-6.52v-8.64Zm-4.32,24.63h4.32v-12.17h5.5l5.88,12.17h5.14l-6.6-12.63a7.949,7.949,0,0,0,5.51-7.9,7.577,7.577,0,0,0-2.84-6.07,8.729,8.729,0,0,0-5.8-1.87h-11.11v28.47Zm27.39,0h4.32v-8.67l5-5.25,7.76,13.92h5.11l-10.08-17.24,9.13-11.23h-5.12l-11.72,14.66h-0.08v-14.66h-4.32v28.47Z" transform="translate(-4188 -1026)"/>
  </g>
</svg>
